<?xml version="1.0" encoding="utf-8" ?>
<svg xmlns="http://www.w3.org/2000/svg" xmlns:xlink="http://www.w3.org/1999/xlink" width="451" height="595">
	<path fill="#DC4349" transform="scale(0.44043 0.440415)" d="M480.383 307.101C479.723 219.14 487.643 130.989 518.472 47.9339C523.446 34.5395 528.783 17.0586 539.158 6.87204C544.504 1.6232 551.603 -0.217957 558.949 0.0204163C575.671 0.565308 602.223 9.76657 613.508 22.5276C615.762 25.0748 618.359 29.3043 618.26 32.8414C617.771 50.0067 601.692 74.9385 595.024 90.9709C589.828 103.605 585.254 116.484 581.319 129.567C570.981 163.01 562.332 196.917 557.569 231.649C554.196 256.24 553.133 281.213 549.696 305.702C551.533 306.261 553.267 306.628 555.167 306.908C593.131 309.657 629.113 317.058 661.908 337.329C709.529 336.126 754.411 340.823 794.742 368.613C808.509 378.098 820.708 390.135 835.129 398.6C864.727 415.977 884.432 420.07 911.887 445.935C949.095 480.99 958.728 515.227 965.722 564.129C1004.93 604.453 1024.61 652.589 1023.54 709.263C1022.79 748.963 1010.45 780.98 986.267 812.089C999.933 844.751 1000.99 877.611 995.166 912.318C984.975 973.011 958.074 1015.43 908.346 1050.85C908.875 1091.68 890.727 1131.42 865.242 1162.49C830.913 1204.34 794.177 1227.37 740.199 1232.87C729.162 1255.47 714.199 1275.42 694.424 1291.14C662.035 1316.89 622.43 1330.15 581.14 1325.55C559.794 1339.56 540.434 1349.6 514.418 1350.87C487.139 1352.2 462.883 1343.24 442.671 1324.93C416.882 1329.46 392.669 1324.99 368.827 1314.61C333.762 1299.33 298.613 1270.35 284.388 1233.92C245.898 1227.86 213.807 1215.92 184.526 1189.51C141.87 1151.03 117.334 1107.62 114.51 1049.95C71.8396 1021.51 46.5477 984.137 33.265 934.755C23.8936 899.914 17.8369 845.93 36.8427 813.184C31.9823 805.401 26.0413 798.282 21.1876 790.404C7.47131 768.14 1.80042 741.918 0.640381 716.017C-1.96808 657.835 18.3862 606.169 57.5807 563.638C61.0676 556.977 60.8951 542.972 62.4161 535.256C65.0109 521.834 69.3152 508.8 75.2244 496.473C92.0395 461.207 120.344 432.704 155.491 415.639C168.546 409.143 183.477 403.575 195.566 395.474C203.382 390.235 210.408 383.095 217.739 377.156C258.59 344.058 312.33 332.875 363.831 338.144C394.09 321.215 445.289 302.633 480.383 307.101Z"/>
	<path fill="#EE6162" transform="scale(0.44043 0.440415)" d="M480.383 307.101C479.723 219.14 487.643 130.989 518.472 47.9339C523.446 34.5395 528.783 17.0586 539.158 6.87204C544.504 1.6232 551.603 -0.217957 558.949 0.0204163C575.671 0.565308 602.223 9.76657 613.508 22.5276C615.762 25.0748 618.359 29.3043 618.26 32.8414C617.771 50.0067 601.692 74.9385 595.024 90.9709C589.828 103.605 585.254 116.484 581.319 129.567C570.981 163.01 562.332 196.917 557.569 231.649C554.196 256.24 553.133 281.213 549.696 305.702C551.533 306.261 553.267 306.628 555.167 306.908C593.131 309.657 629.113 317.058 661.908 337.329C709.529 336.126 754.411 340.823 794.742 368.613C808.509 378.098 820.708 390.135 835.129 398.6C864.727 415.977 884.432 420.07 911.887 445.935C949.095 480.99 958.728 515.227 965.722 564.129C964.138 573.273 962.455 582.116 958.569 590.613C947.27 615.32 923.76 623.893 900.253 632.933C905.588 667.917 903.429 704.114 886.057 735.634C873.372 758.827 851.819 775.879 826.332 782.889C791.428 792.579 765.725 779.786 735.879 763.032C735.148 770.893 734.442 778.776 733.062 786.553C727.527 819.218 709.014 848.252 681.738 867.052C655.004 885.391 622.055 892.297 590.209 886.24C553.607 879.189 532.239 856.729 511.961 827.109C507.48 833.352 502.91 839.534 498.259 845.65C480.327 868.92 454.569 883.391 425.411 887.037C393.729 891.085 361.751 882.181 336.72 862.341C305.02 837.334 293.285 802.949 288.87 763.983C265.843 779.432 238.951 789.748 210.892 785.641C184.694 781.809 161.647 767.082 145.99 745.907C121.976 713.434 118.496 671.189 124.265 632.334C99.8262 623.85 76.843 614.435 66.6273 588.282C63.8645 581.212 62.5773 571.234 58.5273 565.025C58.2208 564.558 57.8962 564.101 57.5807 563.638C61.0676 556.977 60.8951 542.972 62.4161 535.256C65.0109 521.834 69.3152 508.8 75.2244 496.473C92.0395 461.207 120.344 432.704 155.491 415.639C168.546 409.143 183.477 403.575 195.566 395.474C203.382 390.235 210.408 383.095 217.739 377.156C258.59 344.058 312.33 332.875 363.831 338.144C394.09 321.215 445.289 302.633 480.383 307.101Z"/>
	<path fill="#FE9998" transform="scale(0.44043 0.440415)" d="M374.889 403.897C377.07 400.578 379.325 397.37 381.976 394.403C404.907 368.738 448.705 361.427 481.43 359.548C481.682 371.442 481.938 383.438 483.972 395.188C499.151 400.973 522.89 405.341 538.288 398.614C542.273 396.873 544.995 394.296 546.461 390.105C549.662 380.965 548.259 369.008 548.018 359.371C581.406 364.572 625.801 368.502 647.517 398.217C649.549 400.998 651.234 404.006 652.886 407.023C679.354 419.584 708.667 427.753 737.418 433.167C757.537 436.954 782.885 436.464 801.23 446.092C811.083 451.263 817.834 465.057 821.328 475.301C831.21 504.269 829.162 542.055 815.278 569.443C806.413 586.931 791.376 600.455 772.579 606.371C741.916 616.022 715.577 604.351 688.607 590.447C682.278 623.03 678.042 654.468 650.855 676.873C631.526 692.679 606.682 700.098 581.853 697.48C551.635 694.497 531.864 676.669 513.242 654.042C492.111 676.19 474.637 695.022 442.437 697.671C417.6 699.714 393.259 692.288 374.248 676.092C348.307 653.992 340.568 620.889 338.073 588.263L328.543 593.717C305.074 606.9 278.164 614.29 251.623 606.532C233.298 601.177 219.251 588.852 210.183 572.283C195.443 545.358 193.35 508.496 201.929 479.312C205.353 467.666 211.244 455.631 221.153 448.208C241.63 432.865 290.452 435.941 316.777 429.841C337.678 424.997 356.303 414.199 374.889 403.897Z"/>
	<path fill="#FEE4CD" transform="scale(0.44043 0.440415)" d="M374.889 403.897C377.07 400.578 379.325 397.37 381.976 394.403C404.907 368.738 448.705 361.427 481.43 359.548C481.682 371.442 481.938 383.438 483.972 395.188C499.151 400.973 522.89 405.341 538.288 398.614C542.273 396.873 544.995 394.296 546.461 390.105C549.662 380.965 548.259 369.008 548.018 359.371C581.406 364.572 625.801 368.502 647.517 398.217C649.549 400.998 651.234 404.006 652.886 407.023C652.936 409.23 652.975 411.45 652.816 413.654C652.012 424.913 645.066 434.214 636.596 441.163C598.43 472.474 521.7 474.37 474.526 468.749C445.541 465.296 399.806 457.037 381.016 431.787C374.226 422.665 373.413 414.785 374.889 403.897Z"/>
	<path fill="#915925" transform="scale(0.44043 0.440415)" d="M480.383 307.101C479.723 219.14 487.643 130.989 518.472 47.9339C523.446 34.5395 528.783 17.0586 539.158 6.87204C544.504 1.6232 551.603 -0.217957 558.949 0.0204163C575.671 0.565308 602.223 9.76657 613.508 22.5276C615.762 25.0748 618.359 29.3043 618.26 32.8414C617.771 50.0067 601.692 74.9385 595.024 90.9709C589.828 103.605 585.254 116.484 581.319 129.567C570.981 163.01 562.332 196.917 557.569 231.649C554.196 256.24 553.133 281.213 549.696 305.702C551.533 306.261 553.267 306.628 555.167 306.908L551.285 307.409C546.879 313.534 548.159 349.724 548.018 359.371C548.259 369.008 549.662 380.965 546.461 390.105C544.995 394.296 542.273 396.873 538.288 398.614C522.89 405.341 499.151 400.973 483.972 395.188C481.938 383.438 481.682 371.442 481.43 359.548C481.428 342.078 480.794 324.568 480.383 307.101Z"/>
	<path fill="#C82F38" transform="scale(0.44043 0.440415)" d="M36.8427 813.184C49.7804 823.479 68.0189 828.667 84.0485 831.423C84.4141 876.526 95.9011 919.955 129 952.338C152.399 975.234 184.844 989.189 217.748 988.558C238.52 988.16 257.194 981.42 275.907 972.945C289.24 1019.05 303.646 1050.36 347.563 1074.77C376.598 1090.94 410.937 1094.69 442.778 1085.17C471.507 1076.7 491.718 1059.03 510.745 1036.6C534.021 1065.48 561.957 1085.5 599.662 1089.45C634.578 1093.18 669.525 1082.69 696.608 1060.34C725.368 1036.9 738.374 1006.27 748.009 971.295C779.938 988.085 808.736 993.893 844.078 982.982C877.004 972.507 904.403 949.348 920.217 918.625C933.906 892.565 939.175 861.571 938.941 832.351C956.113 827.354 971.307 822.169 986.267 812.089C999.933 844.751 1000.99 877.611 995.166 912.318C984.975 973.011 958.074 1015.43 908.346 1050.85C908.875 1091.68 890.727 1131.42 865.242 1162.49C830.913 1204.34 794.177 1227.37 740.199 1232.87C729.162 1255.47 714.199 1275.42 694.424 1291.14C662.035 1316.89 622.43 1330.15 581.14 1325.55C559.794 1339.56 540.434 1349.6 514.418 1350.87C487.139 1352.2 462.883 1343.24 442.671 1324.93C416.882 1329.46 392.669 1324.99 368.827 1314.61C333.762 1299.33 298.613 1270.35 284.388 1233.92C245.898 1227.86 213.807 1215.92 184.526 1189.51C141.87 1151.03 117.334 1107.62 114.51 1049.95C71.8396 1021.51 46.5477 984.137 33.265 934.755C23.8936 899.914 17.8369 845.93 36.8427 813.184Z"/>
</svg>
